<svg width="20" height="20" viewBox="0 0 20 20" fill="none" xmlns="http://www.w3.org/2000/svg">
<path d="M10.3072 0.674652C9.55593 0.674652 8.88428 0.914841 8.15918 1.32174C7.45661 1.716 6.65156 2.29808 5.63923 3.03005L4.33018 3.97654C3.51776 4.56394 2.86887 5.03309 2.37945 5.46733C1.87411 5.9157 1.49606 6.36267 1.25625 6.92492C1.01592 7.48838 0.957799 8.06591 0.990038 8.73181C1.02115 9.37444 1.14031 10.1498 1.28889 11.1166L1.56237 12.8962C1.77349 14.2701 1.9416 15.3641 2.18857 16.2164C2.44395 17.0977 2.8037 17.7974 3.44672 18.3323C4.08706 18.8649 4.84985 19.1021 5.78166 19.2153C6.68811 19.3254 7.83157 19.3253 9.27587 19.3253H11.3386C12.7829 19.3253 13.9263 19.3254 14.8328 19.2153C15.7646 19.1021 16.5274 18.8649 17.1677 18.3323C17.8107 17.7974 18.1705 17.0977 18.4259 16.2164C18.6728 15.3641 18.8409 14.2701 19.0521 12.8962L19.3256 11.1165C19.4741 10.1497 19.5933 9.37442 19.6244 8.73181C19.6566 8.06591 19.5985 7.48838 19.3582 6.92492C19.1184 6.36267 18.7403 5.9157 18.235 5.46733C17.7456 5.0331 17.0967 4.56394 16.2843 3.97654L14.9752 3.03006C13.9629 2.29809 13.1578 1.716 12.4553 1.32174C11.7302 0.914841 11.0585 0.674652 10.3072 0.674652Z" fill="#F2F5F9"/>
<path fill-rule="evenodd" clip-rule="evenodd" d="M7.02032 13.8046C7.31461 13.4265 7.85965 13.3586 8.2377 13.6529C8.77621 14.0721 9.49898 14.3374 10.3073 14.3374C11.1156 14.3374 11.8383 14.0721 12.3768 13.6529C12.7549 13.3586 13.2999 13.4265 13.5942 13.8046C13.8885 14.1826 13.8206 14.7277 13.4425 15.022C12.5939 15.6825 11.4946 16.0724 10.3073 16.0724C9.11996 16.0724 8.02063 15.6825 7.172 15.022C6.79395 14.7277 6.72604 14.1826 7.02032 13.8046Z" fill="#0070FA"/>
</svg>
