<svg width="112" height="105" viewBox="0 0 112 105" fill="none" xmlns="http://www.w3.org/2000/svg">
<path d="M72.4796 24.0061C66.5778 26.4545 47.7518 32.9776 55.3609 42.0028C62.3831 48.6749 71.2392 36.9094 77.4212 36.129C88.0112 31.5956 98.3544 41.6632 96.3004 51.1114C93.3595 66.6597 74.5736 82.5178 56.828 92.5438C53.5337 94.4382 52.3933 98.2449 54.2405 101.206C61.1894 112.888 86.9042 87.367 91.5189 83.7867C102.836 72.7301 108.898 62.9662 110.578 53.0534C114.466 35.4201 93.8997 15.6183 72.4796 24.012V24.0001V24.0061Z" fill="#177FFF"/>
<path d="M51.2426 71.8552C34.4023 60.8689 16.8736 43.9339 15.0863 28.2732C13.6432 18.7279 24.8966 9.26004 34.8525 14.4108C40.9094 15.5362 48.8662 27.7849 56.2934 21.5326C66.9377 10.5462 32.2576 -2.87552 23.341 0.542447C-24.1217 16.3163 12.8092 64.6382 42.9152 82.3652C50.4152 87.3969 59.0008 76.8095 51.2493 71.8731V71.8612L51.2426 71.8552Z" fill="#177FFF"/>
</svg>
