<svg width="22" height="22" viewBox="0 0 22 22" fill="none" xmlns="http://www.w3.org/2000/svg">
<path d="M11.9515 13.4586C13.0221 12.81 13.9565 13.0714 14.5178 13.4878C14.748 13.6585 14.8631 13.7438 14.9308 13.7438C14.9985 13.7438 15.1136 13.6585 15.3437 13.4878C15.905 13.0714 16.8395 12.81 17.9101 13.4586C19.3151 14.3099 19.633 17.118 16.3921 19.4872C15.7749 19.9385 15.4662 20.1641 14.9308 20.1641C14.3953 20.1641 14.0867 19.9385 13.4694 19.4872C10.2285 17.118 10.5464 14.3099 11.9515 13.4586Z" stroke="#262B62" stroke-width="1.33077" stroke-linecap="round"/>
<path d="M2.95386 7.74353H18.9231" stroke="#262B62" stroke-width="1.33077" stroke-linecap="round" stroke-linejoin="round"/>
<path d="M16.2615 2.42047V4.19483M5.61539 2.42047V4.19483" stroke="#262B62" stroke-width="1.33077" stroke-linecap="round" stroke-linejoin="round"/>
<path d="M10.0956 20.1641C6.51985 20.1641 4.73196 20.1641 3.62111 18.9632C2.51025 17.7622 2.51025 15.8294 2.51025 11.9637V11.5081C2.51025 7.64238 2.51025 5.70952 3.62111 4.5086C4.73196 3.30768 6.51985 3.30768 10.0956 3.30768H11.7813C15.3571 3.30768 17.145 3.30768 18.2558 4.5086C19.3458 5.68697 19.3663 7.57003 19.3667 11.2923" stroke="#262B62" stroke-width="1.33077" stroke-linecap="round" stroke-linejoin="round"/>
</svg>
