<svg width="201" height="64" viewBox="0 0 201 64" fill="none" xmlns="http://www.w3.org/2000/svg">
<path d="M20.3 50L18.2 44.505H6.93L4.865 50H0.28L9.94 25.5H15.085L24.71 50H20.3ZM8.295 40.935H16.87L12.565 29.595L8.295 40.935ZM30.6904 46.43H43.7454V50H26.4554V25.5H30.6904V46.43ZM46.0759 50V25.5H50.3109V50H46.0759ZM71.1421 25.5H75.3771V50H71.1421V38.905H58.8571V50H54.6221V25.5H58.8571V35.335H71.1421V25.5ZM97.1414 50L95.0414 44.505H83.7714L81.7064 50H77.1214L86.7814 25.5H91.9264L101.551 50H97.1414ZM85.1364 40.935H93.7114L89.4064 29.595L85.1364 40.935ZM111.546 50.49C105.176 50.49 101.151 47.025 101.536 41.775H105.806C105.596 44.96 107.801 46.85 111.616 46.85C114.871 46.85 116.901 45.45 116.901 43.21C116.901 37.225 101.956 42.09 101.956 32.57C101.956 27.845 105.631 25.01 111.266 25.01C117.461 25.01 121.241 28.51 120.506 33.655H116.271C116.831 30.505 114.696 28.65 111.161 28.65C108.186 28.65 106.261 29.945 106.261 32.15C106.261 38.1 121.241 33.41 121.241 42.825C121.241 47.655 117.321 50.49 111.546 50.49ZM133.491 50.49C127.121 50.49 123.096 47.025 123.481 41.775H127.751C127.541 44.96 129.746 46.85 133.561 46.85C136.816 46.85 138.846 45.45 138.846 43.21C138.846 37.225 123.901 42.09 123.901 32.57C123.901 27.845 127.576 25.01 133.211 25.01C139.406 25.01 143.186 28.51 142.451 33.655H138.216C138.776 30.505 136.641 28.65 133.106 28.65C130.131 28.65 128.206 29.945 128.206 32.15C128.206 38.1 143.186 33.41 143.186 42.825C143.186 47.655 139.266 50.49 133.491 50.49ZM163.146 50L161.046 44.505H149.776L147.711 50H143.126L152.786 25.5H157.931L167.556 50H163.146ZM151.141 40.935H159.716L155.411 29.595L151.141 40.935ZM185.542 25.5H189.777V50H183.897L173.537 30.12V50H169.302V25.5H175.462L185.542 44.82V25.5Z" fill="#16215B"/>
<path d="M183.904 18.24C180.768 18.24 179.008 16.4 179.008 13.072V6.8H181.312V12.896C181.312 15.12 182.192 16.24 183.888 16.24C185.6 16.24 186.48 15.12 186.48 12.896V6.8H188.8V13.072C188.8 16.4 187.024 18.24 183.904 18.24ZM200.693 18H198.085L194.949 13.488L191.797 18H189.269L193.429 12.192L189.669 6.8H192.293L195.013 10.72L197.749 6.8H200.293L196.517 12.224L200.693 18Z" fill="#0070FA"/>
</svg>
